PathFileType	4	(X/Y/Z)	/Users/itak/Documents/Research/Walk-IL/dataset/trc/00215_00009.trc
DataRate	CameraRate	NumFrames	NumMarkers	Units	OrigDataRate	OrigDataStartFrame	OrigNumFrames
100.000000	100.000000	4	53	mm	100.000000	520	595
Frame#	Time	RPSI			LPSI			L3			STRN			T10			C7			CLAV			RBAK			LBAK			LSHO			LUPA			LAEL			LAOL			LWTS			LWPS			LFRA			LIFD			LHPS			LHTS			RSHO			RUPA			RAEL			RAOL			RWTS			RWPS			RFRA			RIFD			RHTS			RHPS			RBHD			LFHD			RFHD			LBHD			LHIP			RHIP			RASI			LASI			LKNE			LTHI			LANK			LTIP			LTOE			LMT1			LMT5			LHEE			RKNE			RTHI			RANK			RTIP			RTOE			RMT1			RMT5			RHEE			
		X1	Y1	Z1	X2	Y2	Z2	X3	Y3	Z3	X4	Y4	Z4	X5	Y5	Z5	X6	Y6	Z6	X7	Y7	Z7	X8	Y8	Z8	X9	Y9	Z9	X10	Y10	Z10	X11	Y11	Z11	X12	Y12	Z12	X13	Y13	Z13	X14	Y14	Z14	X15	Y15	Z15	X16	Y16	Z16	X17	Y17	Z17	X18	Y18	Z18	X19	Y19	Z19	X20	Y20	Z20	X21	Y21	Z21	X22	Y22	Z22	X23	Y23	Z23	X24	Y24	Z24	X25	Y25	Z25	X26	Y26	Z26	X27	Y27	Z27	X28	Y28	Z28	X29	Y29	Z29	X30	Y30	Z30	X31	Y31	Z31	X32	Y32	Z32	X33	Y33	Z33	X34	Y34	Z34	X35	Y35	Z35	X36	Y36	Z36	X37	Y37	Z37	X38	Y38	Z38	X39	Y39	Z39	X40	Y40	Z40	X41	Y41	Z41	X42	Y42	Z42	X43	Y43	Z43	X44	Y44	Z44	X45	Y45	Z45	X46	Y46	Z46	X47	Y47	Z47	X48	Y48	Z48	X49	Y49	Z49	X50	Y50	Z50	X51	Y51	Z51	X52	Y52	Z52	X53	Y53	Z53	

521	5.2	982.365966796875	1027.89599609375	-128.7791442871094	998.7628784179688	1032.08544921875	-247.1609344482422	984.5012817382812	1110.41552734375	-204.5198211669922	1230.446533203125	1301.588134765625	-188.0915832519531	978.3424072265625	1238.256469726562	-200.63671875	1037.037353515625	1500.013427734375	-204.4800415039062	1201.742431640625	1418.279296875	-190.5593872070312	958.0354614257812	1362.012573242188	-134.4312591552734	1024.337280273438	1459.921020507812	-315.3640747070312	1116.896362304688	1460.987182617188	-364.5491027832031	1093.908569335938	1342.050659179688	-443.9991455078125	1115.200805664062	1133.370483398438	-471.4344177246094	1043.678466796875	1112.781982421875	-425.7181396484375	1226.342895507812	909.7286376953125	-415.0307006835938	1199.995483398438	889.3305053710938	-492.7634887695312	1145.3330078125	1028.362426757812	-484.8873291015625	1254.171264648438	713.8953857421875	-423.5325012207031	1226.341796875	803.8089599609375	-488.9146118164062	1270.38134765625	812.522216796875	-437.595947265625	1085.410400390625	1462.246215820312	-31.38216972351074	1062.610717773438	1398.534545898438	34.89785385131836	1039.517822265625	1118.912841796875	78.59434509277344	1008.647888183594	1110.6787109375	-10.7099552154541	1184.1708984375	909.1790771484375	41.89023590087891	1129.439453125	892.3749389648438	103.3339996337891	1066.980834960938	1050.905029296875	92.33810424804688	1207.355224609375	715.9010620117188	37.10483932495117	1227.976928710938	789.6137084960938	58.26388168334961	1173.484985351562	786.853271484375	106.0913467407227	1068.858764648438	1653.009155273438	-145.4971008300781	1265.485961914062	1712.7861328125	-241.3760375976562	1265.637573242188	1711.905883789062	-141.2150573730469	1112.301147460938	1663.667724609375	-278.1644592285156	1119.300903320312	972.251220703125	-372.2341613769531	1068.864013671875	990.7031860351562	-10.50428009033203	1165.320556640625	1037.453979492188	-35.44583129882812	1209.086059570312	1016.728576660156	-311.9076538085938	1145.534545898438	490.8816528320312	-290.3168334960938	1147.4521484375	633.2243041992188	-328.4525756835938	1027.190307617188	26.6215705871582	-251.5828552246094	1084.927856445312	267.3041076660156	-280.3013305664062	1230.751098632812	26.84245491027832	-153.7342224121094	1152.67333984375	26.40519332885742	-127.8998260498047	1155.431030273438	26.70955848693848	-243.6148376464844	957.752685546875	36.88779067993164	-211.9441528320312	1091.921630859375	499.7006530761719	-12.55669784545898	1123.794799804688	769.320068359375	6.223689079284668	770.7364501953125	107.3918838500977	-55.18712997436523	1048.782592773438	385.12109375	-28.90046119689941	942.5330810546875	34.26899337768555	-116.981086730957	900.0880737304688	53.28278350830078	-154.7710571289062	855.2059326171875	34.61333465576172	-45.11734771728516	728.0101928710938	160.3984985351562	-106.5140609741211	
522	5.21	982.2463989257812	1027.980590820312	-128.9421081542969	998.7329711914062	1032.11474609375	-247.3150177001953	984.308837890625	1110.4404296875	-204.7748718261719	1230.398193359375	1301.601684570312	-188.11767578125	978.6092529296875	1238.2626953125	-200.8431091308594	1036.976806640625	1500.021728515625	-204.7613220214844	1201.710327148438	1418.338745117188	-190.7037658691406	957.91015625	1362.065795898438	-134.7192993164062	1024.408081054688	1459.92041015625	-315.6288146972656	1117.049682617188	1461.0166015625	-364.7066040039062	1094.34716796875	1342.075317382812	-444.1487731933594	1116.306274414062	1133.432373046875	-471.5490112304688	1044.759765625	1112.54638671875	-426.0787048339844	1229.044311523438	910.9052734375	-414.2559204101562	1203.107543945312	890.0357055664062	-492.0132751464844	1147.238525390625	1028.601684570312	-484.7246398925781	1258.900390625	715.4852905273438	-422.1175842285156	1230.291381835938	804.7630004882812	-487.8092956542969	1274.132202148438	814.0660400390625	-436.4081420898438	1085.16796875	1462.340454101562	-31.66578674316406	1062.446899414062	1398.614990234375	34.67581939697266	1039.49658203125	1118.96875	78.39664459228516	1008.609741210938	1110.6982421875	-10.87637424468994	1184.6494140625	909.5747680664062	41.59284591674805	1129.952758789062	892.586669921875	103.0256271362305	1067.172485351562	1050.983642578125	92.16307830810547	1208.34326171875	716.3557739257812	36.67486572265625	1228.760986328125	790.1029663085938	57.88314056396484	1174.282104492188	787.1743774414062	105.7179489135742	1068.685913085938	1653.021484375	-145.7785339355469	1265.333740234375	1712.874633789062	-241.5377960205078	1265.435180664062	1712.044189453125	-141.3892822265625	1112.271484375	1663.672729492188	-278.473388671875	1119.806396484375	972.2427978515625	-372.1017150878906	1067.749145507812	990.744873046875	-10.44234275817871	1165.201782226562	1037.521362304688	-35.47635269165039	1209.087524414062	1016.717529296875	-311.9332275390625	1145.615844726562	490.8592834472656	-290.285888671875	1146.988647460938	633.2195434570312	-328.6537780761719	1027.202514648438	26.61709976196289	-251.5912780761719	1084.964233398438	267.2976989746094	-280.328369140625	1230.74365234375	26.83943939208984	-153.7313690185547	1152.66064453125	26.38932228088379	-127.8837356567383	1155.4384765625	26.71590232849121	-243.60693359375	957.756103515625	36.88702774047852	-211.9619140625	1091.731201171875	499.7934875488281	-12.63425731658936	1121.178955078125	769.6375122070312	8.410993576049805	770.6531372070312	107.3510055541992	-55.34437561035156	1048.4306640625	385.2680969238281	-28.94334411621094	942.526611328125	34.26728057861328	-116.9974899291992	900.0767211914062	53.24810409545898	-154.8173065185547	855.1133422851562	34.65290451049805	-45.21820068359375	727.937744140625	160.3618621826172	-106.7215347290039	
523	5.22	982.1508178710938	1028.036987304688	-129.0987091064453	998.668212890625	1032.1474609375	-247.4792175292969	984.0916137695312	1110.452514648438	-205.0109558105469	1230.332275390625	1301.6103515625	-188.1421508789062	978.8352661132812	1238.277587890625	-201.0411224365234	1036.906005859375	1500.041625976562	-205.0430755615234	1201.66162109375	1418.383911132812	-190.8368835449219	957.7833862304688	1362.11865234375	-135.0186004638672	1024.488525390625	1459.92333984375	-315.8961791992188	1117.207153320312	1461.036010742188	-364.8614501953125	1094.776733398438	1342.076049804688	-444.2784423828125	1117.370239257812	1133.472290039062	-471.6359252929688	1045.79736328125	1112.307495117188	-426.4047546386719	1231.603271484375	912.0238647460938	-413.4304809570312	1206.073364257812	890.6952514648438	-491.2138061523438	1149.072509765625	1028.828491210938	-484.5241394042969	1263.382446289062	717.0142211914062	-420.6582946777344	1234.046142578125	805.6763916015625	-486.6512451171875	1277.689208984375	815.5366821289062	-435.1765441894531	1084.908325195312	1462.423217773438	-31.94306564331055	1062.271118164062	1398.683959960938	34.46441650390625	1039.44677734375	1119.016479492188	78.20957946777344	1008.535278320312	1110.709106445312	-11.05159187316895	1185.076416015625	909.9525146484375	41.32192230224609	1130.431518554688	892.7899169921875	102.7513580322266	1067.310546875	1051.054443359375	91.99697113037109	1209.259033203125	716.792236328125	36.27060317993164	1229.502075195312	790.5802612304688	57.54662322998047	1175.00244140625	787.4817504882812	105.3658752441406	1068.510986328125	1653.027221679688	-146.0591735839844	1265.199951171875	1712.95751953125	-241.7023315429688	1265.246215820312	1712.174438476562	-141.5558624267578	1112.223266601562	1663.663208007812	-278.7735595703125	1120.33056640625	972.2010498046875	-372.0098266601562	1066.738159179688	990.7910766601562	-10.40760612487793	1165.085205078125	1037.57958984375	-35.49498748779297	1209.078247070312	1016.716552734375	-311.9625549316406	1145.691650390625	490.8565063476562	-290.2493896484375	1146.561401367188	633.2247314453125	-328.8307495117188	1027.21484375	26.61329078674316	-251.6008911132812	1085.005737304688	267.2908325195312	-280.3524169921875	1230.7373046875	26.8333740234375	-153.7292785644531	1152.6484375	26.37420463562012	-127.8646926879883	1155.44482421875	26.72014999389648	-243.5999145507812	957.7607421875	36.88481140136719	-211.9793090820312	1091.570678710938	499.8791809082031	-12.68984222412109	1119.06298828125	769.8212890625	10.11823272705078	770.572509765625	107.306640625	-55.49300384521484	1048.093872070312	385.3744201660156	-28.98565101623535	942.515380859375	34.26374435424805	-117.0102615356445	900.0651245117188	53.21588516235352	-154.8603210449219	855.0177001953125	34.68804168701172	-45.31719589233398	727.8688354492188	160.3215179443359	-106.9182205200195	
524	5.23	982.1046142578125	1028.0625	-129.2446441650391	998.5695190429688	1032.182739257812	-247.6542510986328	983.872314453125	1110.454467773438	-205.2275848388672	1230.24755859375	1301.614990234375	-188.1649627685547	978.9952392578125	1238.302734375	-201.2379150390625	1036.826782226562	1500.075317382812	-205.3279113769531	1201.593383789062	1418.412353515625	-190.9534606933594	957.658447265625	1362.168212890625	-135.3244781494141	1024.572509765625	1459.929443359375	-316.1690063476562	1117.363647460938	1461.045166015625	-365.011962890625	1095.19921875	1342.051025390625	-444.3929748535156	1118.389892578125	1133.490966796875	-471.6959533691406	1046.787475585938	1112.068603515625	-426.6996459960938	1234.014282226562	913.0858154296875	-412.5677490234375	1208.885498046875	891.3046875	-490.3709716796875	1150.83154296875	1029.045043945312	-484.2891540527344	1267.596557617188	718.4553833007812	-419.1426696777344	1237.595092773438	806.5486450195312	-485.4573364257812	1281.044799804688	816.9338989257812	-433.9135131835938	1084.64111328125	1462.493408203125	-32.20660400390625	1062.079223632812	1398.74169921875	34.26179504394531	1039.376098632812	1119.056640625	78.03530883789062	1008.435607910156	1110.712036132812	-11.23364639282227	1185.44287109375	910.3091430664062	41.07438278198242	1130.872314453125	892.9841918945312	102.5107192993164	1067.390014648438	1051.118896484375	91.83493041992188	1210.092163085938	717.2081909179688	35.89381408691406	1230.195556640625	791.0446166992188	57.25888442993164	1175.63916015625	787.7738647460938	105.0360794067383	1068.3369140625	1653.027709960938	-146.3381042480469	1265.088500976562	1713.036254882812	-241.8721313476562	1265.0712890625	1712.29248046875	-141.71142578125	1112.158447265625	1663.640991210938	-279.0588989257812	1120.848999023438	972.1173095703125	-371.9787292480469	1065.908203125	990.8416748046875	-10.4124174118042	1164.97021484375	1037.630981445312	-35.50510025024414	1209.058837890625	1016.7216796875	-311.9951171875	1145.762451171875	490.8763122558594	-290.205810546875	1146.298950195312	633.2218017578125	-328.9484252929688	1027.226684570312	26.61076927185059	-251.6110992431641	1085.051879882812	267.2820129394531	-280.3676452636719	1230.73095703125	26.82473182678223	-153.7272491455078	1152.637573242188	26.36059379577637	-127.8432235717773	1155.449584960938	26.72302627563477	-243.5926971435547	957.7658081054688	36.88160705566406	-211.9961853027344	1091.431884765625	499.9559020996094	-12.72958374023438	1117.568359375	769.8890380859375	11.24234390258789	770.49462890625	107.2604446411133	-55.63156127929688	1047.785034179688	385.4546203613281	-29.00957679748535	942.4990234375	34.25805282592773	-117.019416809082	900.0531616210938	53.18696212768555	-154.8980865478516	854.9295654296875	34.71903610229492	-45.40121078491211	727.8040771484375	160.2794189453125	-107.0971984863281	
